<svg xmlns="http://www.w3.org/2000/svg" width="286.25" height="35" viewBox="0 0 286.25 35"><rect class="svg__rect" x="0" y="0" width="178.1" height="35" fill="#31C4F3"/><rect class="svg__rect" x="176.1" y="0" width="110.15" height="35" fill="#389AD5"/><path class="svg__text" d="M15.00 22L13.46 22L16.68 13.47L18.01 13.47L21.24 22L19.69 22L18.99 20.01L15.69 20.01L15.00 22ZM17.34 15.28L16.10 18.82L18.58 18.82L17.34 15.28ZM26.67 22L25.19 22L25.19 13.47L28.46 13.47Q29.89 13.47 30.73 14.21Q31.57 14.96 31.57 16.18L31.57 16.18Q31.57 17.44 30.74 18.13Q29.92 18.83 28.44 18.83L28.44 18.83L26.67 18.83L26.67 22ZM26.67 14.66L26.67 17.64L28.46 17.64Q29.25 17.64 29.66 17.27Q30.08 16.90 30.08 16.19L30.08 16.19Q30.08 15.50 29.66 15.09Q29.23 14.68 28.50 14.66L28.50 14.66L26.67 14.66ZM37.41 22L35.94 22L35.94 13.47L37.41 13.47L37.41 22ZM49.68 22L48.20 22L48.20 13.47L51.20 13.47Q52.68 13.47 53.48 14.13Q54.28 14.79 54.28 16.05L54.28 16.05Q54.28 16.90 53.87 17.48Q53.46 18.06 52.72 18.37L52.72 18.37L54.64 21.92L54.64 22L53.05 22L51.34 18.71L49.68 18.71L49.68 22ZM49.68 14.66L49.68 17.52L51.21 17.52Q51.96 17.52 52.38 17.15Q52.80 16.77 52.80 16.11L52.80 16.11Q52.80 15.43 52.41 15.05Q52.02 14.68 51.25 14.66L51.25 14.66L49.68 14.66ZM64.26 22L58.68 22L58.68 13.47L64.22 13.47L64.22 14.66L60.16 14.66L60.16 17.02L63.66 17.02L63.66 18.19L60.16 18.19L60.16 20.82L64.26 20.82L64.26 22ZM68.15 18.00L68.15 18.00L68.15 17.52Q68.15 16.28 68.59 15.32Q69.03 14.37 69.84 13.86Q70.64 13.35 71.68 13.35L71.68 13.35Q72.73 13.35 73.54 13.85Q74.35 14.35 74.79 15.29Q75.22 16.23 75.23 17.48L75.23 17.48L75.23 17.96Q75.23 19.17 74.85 20.06Q74.46 20.95 73.77 21.47L73.77 21.47L75.24 22.61L74.28 23.48L72.46 22.04Q72.10 22.12 71.69 22.12L71.69 22.12Q70.66 22.12 69.85 21.61Q69.04 21.10 68.60 20.17Q68.15 19.23 68.15 18.00ZM69.63 17.46L69.63 17.96Q69.63 19.34 70.17 20.12Q70.71 20.90 71.69 20.90L71.69 20.90Q72.68 20.90 73.21 20.15Q73.74 19.40 73.74 17.96L73.74 17.96L73.74 17.51Q73.74 16.07 73.20 15.33Q72.66 14.58 71.68 14.58L71.68 14.58Q70.72 14.58 70.18 15.33Q69.64 16.09 69.63 17.46L69.63 17.46ZM79.59 19.16L79.59 19.16L79.59 13.47L81.07 13.47L81.07 19.18Q81.07 20.03 81.50 20.48Q81.93 20.93 82.78 20.93L82.78 20.93Q84.49 20.93 84.49 19.13L84.49 19.13L84.49 13.47L85.97 13.47L85.97 19.17Q85.97 20.53 85.10 21.32Q84.22 22.12 82.78 22.12L82.78 22.12Q81.31 22.12 80.45 21.33Q79.59 20.55 79.59 19.16ZM96.11 22L90.54 22L90.54 13.47L96.07 13.47L96.07 14.66L92.02 14.66L92.02 17.02L95.52 17.02L95.52 18.19L92.02 18.19L92.02 20.82L96.11 20.82L96.11 22ZM99.88 19.42L99.88 19.42L101.36 19.42Q101.36 20.15 101.84 20.55Q102.32 20.95 103.22 20.95L103.22 20.95Q103.99 20.95 104.38 20.63Q104.77 20.32 104.77 19.80L104.77 19.80Q104.77 19.24 104.37 18.94Q103.98 18.63 102.95 18.32Q101.91 18.01 101.31 17.63L101.31 17.63Q100.14 16.90 100.14 15.72L100.14 15.72Q100.14 14.69 100.98 14.02Q101.82 13.35 103.16 13.35L103.16 13.35Q104.05 13.35 104.75 13.68Q105.45 14.01 105.85 14.61Q106.24 15.22 106.24 15.96L106.24 15.96L104.77 15.96Q104.77 15.29 104.35 14.91Q103.93 14.54 103.15 14.54L103.15 14.54Q102.42 14.54 102.02 14.85Q101.62 15.16 101.62 15.71L101.62 15.71Q101.62 16.18 102.06 16.50Q102.49 16.81 103.48 17.10Q104.48 17.40 105.08 17.78Q105.69 18.16 105.97 18.65Q106.25 19.13 106.25 19.79L106.25 19.79Q106.25 20.86 105.43 21.49Q104.62 22.12 103.22 22.12L103.22 22.12Q102.29 22.12 101.51 21.77Q100.74 21.43 100.31 20.83Q99.88 20.22 99.88 19.42ZM112.22 14.66L109.58 14.66L109.58 13.47L116.35 13.47L116.35 14.66L113.69 14.66L113.69 22L112.22 22L112.22 14.66ZM127.77 14.66L125.13 14.66L125.13 13.47L131.90 13.47L131.90 14.66L129.24 14.66L129.24 22L127.77 22L127.77 14.66ZM135.38 18.00L135.38 18.00L135.38 17.52Q135.38 16.28 135.83 15.32Q136.27 14.37 137.07 13.86Q137.88 13.35 138.92 13.35Q139.97 13.35 140.77 13.85Q141.58 14.35 142.02 15.29Q142.46 16.23 142.46 17.48L142.46 17.48L142.46 17.96Q142.46 19.21 142.03 20.16Q141.59 21.10 140.79 21.61Q139.98 22.12 138.93 22.12L138.93 22.12Q137.90 22.12 137.09 21.61Q136.27 21.10 135.83 20.17Q135.39 19.23 135.38 18.00ZM136.87 17.46L136.87 17.96Q136.87 19.36 137.41 20.13Q137.96 20.90 138.93 20.90L138.93 20.90Q139.92 20.90 140.45 20.15Q140.98 19.40 140.98 17.96L140.98 17.96L140.98 17.51Q140.98 16.09 140.44 15.34Q139.91 14.58 138.92 14.58L138.92 14.58Q137.96 14.58 137.42 15.33Q136.88 16.09 136.87 17.46L136.87 17.46ZM146.66 18.00L146.66 18.00L146.66 17.52Q146.66 16.28 147.10 15.32Q147.54 14.37 148.35 13.86Q149.15 13.35 150.20 13.35Q151.24 13.35 152.04 13.85Q152.85 14.35 153.29 15.29Q153.73 16.23 153.73 17.48L153.73 17.48L153.73 17.96Q153.73 19.21 153.30 20.16Q152.87 21.10 152.06 21.61Q151.26 22.12 150.21 22.12L150.21 22.12Q149.17 22.12 148.36 21.61Q147.55 21.10 147.10 20.17Q146.66 19.23 146.66 18.00ZM148.14 17.46L148.14 17.96Q148.14 19.36 148.69 20.13Q149.23 20.90 150.21 20.90L150.21 20.90Q151.19 20.90 151.72 20.15Q152.25 19.40 152.25 17.96L152.25 17.96L152.25 17.51Q152.25 16.09 151.72 15.34Q151.18 14.58 150.20 14.58L150.20 14.58Q149.23 14.58 148.69 15.33Q148.15 16.09 148.14 17.46L148.14 17.46ZM163.56 22L158.20 22L158.20 13.47L159.68 13.47L159.68 20.82L163.56 20.82L163.56 22Z" fill="#FFFFFF"/><path class="svg__text" d="M192.67 22L190.29 22L190.29 13.60L194.13 13.60Q195.27 13.60 196.11 13.98Q196.95 14.35 197.41 15.06Q197.86 15.76 197.86 16.71L197.86 16.71Q197.86 17.66 197.41 18.35Q196.95 19.05 196.11 19.42Q195.27 19.80 194.13 19.80L194.13 19.80L192.67 19.80L192.67 22ZM192.67 15.47L192.67 17.93L193.99 17.93Q194.72 17.93 195.09 17.61Q195.46 17.29 195.46 16.71L195.46 16.71Q195.46 16.12 195.09 15.80Q194.72 15.47 193.99 15.47L193.99 15.47L192.67 15.47ZM202.19 17.80L202.19 17.80Q202.19 16.55 202.79 15.55Q203.40 14.56 204.46 14.00Q205.52 13.43 206.85 13.43L206.85 13.43Q208.18 13.43 209.25 14.00Q210.31 14.56 210.92 15.55Q211.52 16.55 211.52 17.80L211.52 17.80Q211.52 19.05 210.92 20.04Q210.31 21.04 209.25 21.60Q208.19 22.17 206.85 22.17L206.85 22.17Q205.52 22.17 204.46 21.60Q203.40 21.04 202.79 20.04Q202.19 19.05 202.19 17.80ZM204.58 17.80L204.58 17.80Q204.58 18.51 204.89 19.05Q205.19 19.60 205.70 19.90Q206.22 20.20 206.85 20.20L206.85 20.20Q207.49 20.20 208.01 19.90Q208.52 19.60 208.82 19.05Q209.12 18.51 209.12 17.80L209.12 17.80Q209.12 17.09 208.82 16.54Q208.52 16 208.01 15.70Q207.49 15.40 206.85 15.40L206.85 15.40Q206.21 15.40 205.70 15.70Q205.19 16 204.89 16.54Q204.58 17.09 204.58 17.80ZM215.66 21.24L215.66 21.24L216.44 19.49Q217.01 19.86 217.75 20.09Q218.49 20.32 219.22 20.32L219.22 20.32Q220.58 20.32 220.59 19.64L220.59 19.64Q220.59 19.28 220.20 19.11Q219.81 18.93 218.94 18.74L218.94 18.74Q217.99 18.53 217.36 18.30Q216.72 18.06 216.27 17.55Q215.81 17.03 215.81 16.16L215.81 16.16Q215.81 15.39 216.23 14.77Q216.65 14.15 217.48 13.79Q218.32 13.43 219.53 13.43L219.53 13.43Q220.35 13.43 221.16 13.62Q221.96 13.80 222.58 14.17L222.58 14.17L221.85 15.93Q220.65 15.28 219.51 15.28L219.51 15.28Q218.81 15.28 218.48 15.49Q218.16 15.70 218.16 16.04L218.16 16.04Q218.16 16.37 218.54 16.54Q218.93 16.71 219.78 16.89L219.78 16.89Q220.74 17.10 221.37 17.33Q222.00 17.56 222.46 18.07Q222.92 18.58 222.92 19.46L222.92 19.46Q222.92 20.21 222.51 20.83Q222.09 21.44 221.25 21.80Q220.41 22.17 219.20 22.17L219.20 22.17Q218.18 22.17 217.22 21.92Q216.26 21.67 215.66 21.24ZM229.29 15.48L226.71 15.48L226.71 13.60L234.23 13.60L234.23 15.48L231.67 15.48L231.67 22L229.29 22L229.29 15.48ZM240.80 22L238.60 22L238.60 13.60L240.56 13.60L243.51 18.45L246.40 13.60L248.35 13.60L248.37 22L246.19 22L246.17 17.55L244.01 21.17L242.95 21.17L240.80 17.67L240.80 22ZM254.95 22L252.53 22L256.24 13.60L258.58 13.60L262.29 22L259.83 22L259.16 20.37L255.61 20.37L254.95 22ZM257.39 15.93L256.31 18.61L258.47 18.61L257.39 15.93ZM268.78 22L266.45 22L266.45 13.60L268.41 13.60L272.11 18.07L272.11 13.60L274.44 13.60L274.44 22L272.49 22L268.78 17.52L268.78 22Z" fill="#FFFFFF" x="189.1"/></svg>