<svg xmlns="http://www.w3.org/2000/svg" width="269.18" height="35" viewBox="0 0 269.18 35"><rect class="svg__rect" x="0" y="0" width="161.03" height="35" fill="#31C4F3"/><rect class="svg__rect" x="159.03" y="0" width="110.15" height="35" fill="#389AD5"/><path class="svg__text" d="M16.67 22L14.22 22L14.22 13.47L16.74 13.47Q17.87 13.47 18.74 13.97Q19.62 14.48 20.10 15.40Q20.58 16.33 20.58 17.52L20.58 17.52L20.58 17.95Q20.58 19.16 20.10 20.08Q19.61 21.00 18.72 21.50Q17.83 22 16.67 22L16.67 22ZM15.70 14.66L15.70 20.82L16.67 20.82Q17.83 20.82 18.46 20.09Q19.08 19.36 19.09 17.99L19.09 17.99L19.09 17.52Q19.09 16.13 18.49 15.40Q17.89 14.66 16.74 14.66L16.74 14.66L15.70 14.66ZM24.78 18.00L24.78 18.00L24.78 17.52Q24.78 16.28 25.22 15.32Q25.66 14.37 26.47 13.86Q27.27 13.35 28.31 13.35Q29.36 13.35 30.16 13.85Q30.97 14.35 31.41 15.29Q31.85 16.23 31.85 17.48L31.85 17.48L31.85 17.96Q31.85 19.21 31.42 20.16Q30.99 21.10 30.18 21.61Q29.38 22.12 28.33 22.12L28.33 22.12Q27.29 22.12 26.48 21.61Q25.67 21.10 25.22 20.17Q24.78 19.23 24.78 18.00ZM26.26 17.46L26.26 17.96Q26.26 19.36 26.81 20.13Q27.35 20.90 28.33 20.90L28.33 20.90Q29.31 20.90 29.84 20.15Q30.37 19.40 30.37 17.96L30.37 17.96L30.37 17.51Q30.37 16.09 29.84 15.34Q29.30 14.58 28.31 14.58L28.31 14.58Q27.35 14.58 26.81 15.33Q26.27 16.09 26.26 17.46L26.26 17.46ZM36.05 18.19L36.05 18.19L36.05 17.39Q36.05 16.19 36.48 15.27Q36.90 14.35 37.70 13.85Q38.50 13.35 39.55 13.35L39.55 13.35Q40.97 13.35 41.83 14.12Q42.69 14.89 42.83 16.29L42.83 16.29L41.35 16.29Q41.25 15.37 40.82 14.96Q40.39 14.55 39.55 14.55L39.55 14.55Q38.59 14.55 38.07 15.26Q37.55 15.96 37.54 17.33L37.54 17.33L37.54 18.09Q37.54 19.47 38.03 20.20Q38.53 20.92 39.48 20.92L39.48 20.92Q40.36 20.92 40.80 20.53Q41.23 20.14 41.35 19.22L41.35 19.22L42.83 19.22Q42.70 20.59 41.82 21.35Q40.94 22.12 39.48 22.12L39.48 22.12Q38.46 22.12 37.69 21.63Q36.91 21.15 36.49 20.26Q36.07 19.37 36.05 18.19ZM47.01 19.16L47.01 19.16L47.01 13.47L48.48 13.47L48.48 19.18Q48.48 20.03 48.92 20.48Q49.35 20.93 50.19 20.93L50.19 20.93Q51.90 20.93 51.90 19.13L51.90 19.13L51.90 13.47L53.38 13.47L53.38 19.17Q53.38 20.53 52.51 21.32Q51.64 22.12 50.19 22.12L50.19 22.12Q48.73 22.12 47.87 21.33Q47.01 20.55 47.01 19.16ZM59.43 22L57.95 22L57.95 13.47L59.87 13.47L62.33 20.01L64.79 13.47L66.71 13.47L66.71 22L65.23 22L65.23 19.19L65.38 15.43L62.86 22L61.80 22L59.28 15.43L59.43 19.19L59.43 22ZM77.02 22L71.45 22L71.45 13.47L76.98 13.47L76.98 14.66L72.93 14.66L72.93 17.02L76.43 17.02L76.43 18.19L72.93 18.19L72.93 20.82L77.02 20.82L77.02 22ZM82.70 22L81.22 22L81.22 13.47L82.70 13.47L86.52 19.54L86.52 13.47L87.99 13.47L87.99 22L86.50 22L82.70 15.95L82.70 22ZM94.41 14.66L91.77 14.66L91.77 13.47L98.54 13.47L98.54 14.66L95.88 14.66L95.88 22L94.41 22L94.41 14.66ZM103.07 22L101.53 22L104.76 13.47L106.09 13.47L109.31 22L107.77 22L107.07 20.01L103.77 20.01L103.07 22ZM105.42 15.28L104.18 18.82L106.65 18.82L105.42 15.28ZM114.95 14.66L112.31 14.66L112.31 13.47L119.08 13.47L119.08 14.66L116.42 14.66L116.42 22L114.95 22L114.95 14.66ZM124.40 22L122.93 22L122.93 13.47L124.40 13.47L124.40 22ZM128.94 18.00L128.94 18.00L128.94 17.52Q128.94 16.28 129.39 15.32Q129.83 14.37 130.63 13.86Q131.44 13.35 132.48 13.35Q133.53 13.35 134.33 13.85Q135.14 14.35 135.58 15.29Q136.02 16.23 136.02 17.48L136.02 17.48L136.02 17.96Q136.02 19.21 135.59 20.16Q135.15 21.10 134.35 21.61Q133.54 22.12 132.49 22.12L132.49 22.12Q131.46 22.12 130.65 21.61Q129.83 21.10 129.39 20.17Q128.95 19.23 128.94 18.00ZM130.43 17.46L130.43 17.96Q130.43 19.36 130.97 20.13Q131.52 20.90 132.49 20.90L132.49 20.90Q133.48 20.90 134.01 20.15Q134.54 19.40 134.54 17.96L134.54 17.96L134.54 17.51Q134.54 16.09 134.00 15.34Q133.47 14.58 132.48 14.58L132.48 14.58Q131.52 14.58 130.98 15.33Q130.44 16.09 130.43 17.46L130.43 17.46ZM141.97 22L140.49 22L140.49 13.47L141.97 13.47L145.78 19.54L145.78 13.47L147.25 13.47L147.25 22L145.77 22L141.97 15.95L141.97 22Z" fill="#FFFFFF"/><path class="svg__text" d="M175.60 22L173.22 22L173.22 13.60L177.06 13.60Q178.20 13.60 179.04 13.98Q179.88 14.35 180.34 15.06Q180.79 15.76 180.79 16.71L180.79 16.71Q180.79 17.66 180.34 18.35Q179.88 19.05 179.04 19.42Q178.20 19.80 177.06 19.80L177.06 19.80L175.60 19.80L175.60 22ZM175.60 15.47L175.60 17.93L176.92 17.93Q177.65 17.93 178.02 17.61Q178.39 17.29 178.39 16.71L178.39 16.71Q178.39 16.12 178.02 15.80Q177.65 15.47 176.92 15.47L176.92 15.47L175.60 15.47ZM185.12 17.80L185.12 17.80Q185.12 16.55 185.72 15.55Q186.33 14.56 187.39 14.00Q188.45 13.43 189.78 13.43L189.78 13.43Q191.11 13.43 192.18 14.00Q193.24 14.56 193.85 15.55Q194.45 16.55 194.45 17.80L194.45 17.80Q194.45 19.05 193.85 20.04Q193.24 21.04 192.18 21.60Q191.12 22.17 189.78 22.17L189.78 22.17Q188.45 22.17 187.39 21.60Q186.33 21.04 185.72 20.04Q185.12 19.05 185.12 17.80ZM187.51 17.80L187.51 17.80Q187.51 18.51 187.82 19.05Q188.12 19.60 188.63 19.90Q189.15 20.20 189.78 20.20L189.78 20.20Q190.42 20.20 190.94 19.90Q191.45 19.60 191.75 19.05Q192.05 18.51 192.05 17.80L192.05 17.80Q192.05 17.09 191.75 16.54Q191.45 16 190.94 15.70Q190.42 15.40 189.78 15.40L189.78 15.40Q189.14 15.40 188.63 15.70Q188.12 16 187.82 16.54Q187.51 17.09 187.51 17.80ZM198.59 21.24L198.59 21.24L199.37 19.49Q199.94 19.86 200.68 20.09Q201.42 20.32 202.15 20.32L202.15 20.32Q203.51 20.32 203.52 19.64L203.52 19.64Q203.52 19.28 203.13 19.11Q202.74 18.93 201.87 18.74L201.87 18.74Q200.92 18.53 200.29 18.30Q199.65 18.06 199.20 17.55Q198.74 17.03 198.74 16.16L198.74 16.16Q198.74 15.39 199.16 14.77Q199.58 14.15 200.41 13.79Q201.25 13.43 202.46 13.43L202.46 13.43Q203.28 13.43 204.09 13.62Q204.89 13.80 205.51 14.17L205.51 14.17L204.78 15.93Q203.58 15.28 202.44 15.28L202.44 15.28Q201.74 15.28 201.41 15.49Q201.09 15.70 201.09 16.04L201.09 16.04Q201.09 16.37 201.47 16.54Q201.86 16.71 202.71 16.89L202.71 16.89Q203.67 17.10 204.30 17.33Q204.93 17.56 205.39 18.07Q205.85 18.58 205.85 19.46L205.85 19.46Q205.85 20.21 205.44 20.83Q205.02 21.44 204.18 21.80Q203.34 22.17 202.13 22.17L202.13 22.17Q201.11 22.17 200.15 21.92Q199.19 21.67 198.59 21.24ZM212.22 15.48L209.64 15.48L209.64 13.60L217.16 13.60L217.16 15.48L214.60 15.48L214.60 22L212.22 22L212.22 15.48ZM223.73 22L221.53 22L221.53 13.60L223.49 13.60L226.44 18.45L229.33 13.60L231.28 13.60L231.30 22L229.12 22L229.10 17.55L226.94 21.17L225.88 21.17L223.73 17.67L223.73 22ZM237.88 22L235.46 22L239.17 13.60L241.51 13.60L245.22 22L242.76 22L242.09 20.37L238.54 20.37L237.88 22ZM240.32 15.93L239.24 18.61L241.40 18.61L240.32 15.93ZM251.71 22L249.38 22L249.38 13.60L251.34 13.60L255.04 18.07L255.04 13.60L257.37 13.60L257.37 22L255.42 22L251.71 17.52L251.71 22Z" fill="#FFFFFF" x="172.03"/></svg>