<svg xmlns="http://www.w3.org/2000/svg" width="591.1700000000001" height="35" viewBox="0 0 591.1700000000001 35"><rect class="svg__rect" x="0" y="0" width="115.31" height="35" fill="#31C4F3"/><rect class="svg__rect" x="113.31" y="0" width="477.86" height="35" fill="#389AD5"/><path class="svg__text" d="M15.69 22L14.22 22L14.22 13.47L16.14 13.47L18.60 20.01L21.06 13.47L22.97 13.47L22.97 22L21.49 22L21.49 19.19L21.64 15.43L19.12 22L18.06 22L15.55 15.43L15.69 19.19L15.69 22ZM28.49 22L26.95 22L30.17 13.47L31.50 13.47L34.73 22L33.18 22L32.49 20.01L29.18 20.01L28.49 22ZM30.83 15.28L29.60 18.82L32.07 18.82L30.83 15.28ZM41.14 22L38.69 22L38.69 13.47L41.21 13.47Q42.34 13.47 43.21 13.97Q44.09 14.48 44.57 15.40Q45.05 16.33 45.05 17.52L45.05 17.52L45.05 17.95Q45.05 19.16 44.57 20.08Q44.08 21.00 43.19 21.50Q42.30 22 41.14 22L41.14 22ZM40.17 14.66L40.17 20.82L41.14 20.82Q42.30 20.82 42.93 20.09Q43.55 19.36 43.56 17.99L43.56 17.99L43.56 17.52Q43.56 16.13 42.96 15.40Q42.35 14.66 41.21 14.66L41.21 14.66L40.17 14.66ZM55.09 22L49.51 22L49.51 13.47L55.05 13.47L55.05 14.66L51.00 14.66L51.00 17.02L54.50 17.02L54.50 18.19L51.00 18.19L51.00 20.82L55.09 20.82L55.09 22ZM66.65 22L64.68 13.47L66.15 13.47L67.47 19.88L69.10 13.47L70.34 13.47L71.96 19.89L73.27 13.47L74.74 13.47L72.77 22L71.35 22L69.73 15.77L68.07 22L66.65 22ZM80.38 22L78.90 22L78.90 13.47L80.38 13.47L80.38 22ZM86.87 14.66L84.23 14.66L84.23 13.47L91.00 13.47L91.00 14.66L88.34 14.66L88.34 22L86.87 22L86.87 14.66ZM96.24 22L94.75 22L94.75 13.47L96.24 13.47L96.24 17.02L100.05 17.02L100.05 13.47L101.53 13.47L101.53 22L100.05 22L100.05 18.21L96.24 18.21L96.24 22Z" fill="#FFFFFF"/><path class="svg__text" d="M129.88 22L127.50 22L127.50 13.60L131.34 13.60Q132.48 13.60 133.32 13.98Q134.16 14.35 134.62 15.06Q135.07 15.76 135.07 16.71L135.07 16.71Q135.07 17.66 134.62 18.35Q134.16 19.05 133.32 19.42Q132.48 19.80 131.34 19.80L131.34 19.80L129.88 19.80L129.88 22ZM129.88 15.47L129.88 17.93L131.20 17.93Q131.93 17.93 132.30 17.61Q132.67 17.29 132.67 16.71L132.67 16.71Q132.67 16.12 132.30 15.80Q131.93 15.47 131.20 15.47L131.20 15.47L129.88 15.47ZM141.95 18.95L138.75 13.60L141.26 13.60L143.25 16.94L145.24 13.60L147.54 13.60L144.33 18.99L144.33 22L141.95 22L141.95 18.95ZM153.42 15.48L150.84 15.48L150.84 13.60L158.36 13.60L158.36 15.48L155.79 15.48L155.79 22L153.42 22L153.42 15.48ZM165.11 22L162.73 22L162.73 13.60L165.11 13.60L165.11 16.76L168.35 16.76L168.35 13.60L170.72 13.60L170.72 22L168.35 22L168.35 18.72L165.11 18.72L165.11 22ZM175.46 17.80L175.46 17.80Q175.46 16.55 176.06 15.55Q176.66 14.56 177.73 14.00Q178.79 13.43 180.12 13.43L180.12 13.43Q181.45 13.43 182.51 14.00Q183.58 14.56 184.18 15.55Q184.79 16.55 184.79 17.80L184.79 17.80Q184.79 19.05 184.18 20.04Q183.58 21.04 182.52 21.60Q181.46 22.17 180.12 22.17L180.12 22.17Q178.79 22.17 177.73 21.60Q176.66 21.04 176.06 20.04Q175.46 19.05 175.46 17.80ZM177.85 17.80L177.85 17.80Q177.85 18.51 178.16 19.05Q178.46 19.60 178.97 19.90Q179.49 20.20 180.12 20.20L180.12 20.20Q180.76 20.20 181.28 19.90Q181.79 19.60 182.09 19.05Q182.39 18.51 182.39 17.80L182.39 17.80Q182.39 17.09 182.09 16.54Q181.79 16 181.28 15.70Q180.76 15.40 180.12 15.40L180.12 15.40Q179.48 15.40 178.97 15.70Q178.46 16 178.16 16.54Q177.85 17.09 177.85 17.80ZM191.85 22L189.52 22L189.52 13.60L191.48 13.60L195.19 18.07L195.19 13.60L197.51 13.60L197.51 22L195.56 22L191.85 17.52L191.85 22ZM211.54 18.68L209.51 18.68L209.51 16.93L211.54 16.93L211.54 14.95L213.39 14.95L213.39 16.93L215.42 16.93L215.42 18.68L213.39 18.68L213.39 20.66L211.54 20.66L211.54 18.68ZM231.38 22L227.41 22L227.41 13.60L231.38 13.60Q232.77 13.60 233.83 14.12Q234.90 14.63 235.49 15.58Q236.08 16.53 236.08 17.80L236.08 17.80Q236.08 19.07 235.49 20.02Q234.90 20.97 233.83 21.48Q232.77 22 231.38 22L231.38 22ZM229.79 15.50L229.79 20.10L231.29 20.10Q232.37 20.10 233.02 19.49Q233.68 18.88 233.68 17.80L233.68 17.80Q233.68 16.72 233.02 16.11Q232.37 15.50 231.29 15.50L231.29 15.50L229.79 15.50ZM239.73 20.93L239.73 20.93L241.02 19.40Q241.69 20.27 242.46 20.27L242.46 20.27Q242.47 20.27 242.48 20.27L242.48 20.27Q242.99 20.27 243.26 19.96Q243.53 19.65 243.53 19.05L243.53 19.05L243.53 15.44L240.63 15.44L240.63 13.60L245.89 13.60L245.89 18.91Q245.89 20.54 245.06 21.36Q244.24 22.17 242.65 22.17L242.65 22.17Q241.72 22.17 240.96 21.85Q240.21 21.53 239.73 20.93ZM252.39 22L249.96 22L253.67 13.60L256.02 13.60L259.73 22L257.27 22L256.60 20.37L253.05 20.37L252.39 22ZM254.83 15.93L253.74 18.61L255.91 18.61L254.83 15.93ZM266.22 22L263.89 22L263.89 13.60L265.84 13.60L269.55 18.07L269.55 13.60L271.88 13.60L271.88 22L269.93 22L266.22 17.52L266.22 22ZM276.61 17.80L276.61 17.80Q276.61 16.54 277.21 15.54Q277.81 14.55 278.88 13.99Q279.95 13.43 281.29 13.43L281.29 13.43Q282.47 13.43 283.40 13.83Q284.34 14.22 284.96 14.97L284.96 14.97L283.45 16.33Q282.61 15.40 281.43 15.40L281.43 15.40Q281.42 15.40 281.41 15.40L281.41 15.40Q280.33 15.40 279.67 16.06Q279.01 16.71 279.01 17.80L279.01 17.80Q279.01 18.50 279.31 19.04Q279.61 19.59 280.15 19.89Q280.69 20.20 281.39 20.20L281.39 20.20Q282.07 20.20 282.67 19.93L282.67 19.93L282.67 17.62L284.77 17.62L284.77 21.10Q284.05 21.61 283.11 21.89Q282.18 22.17 281.24 22.17L281.24 22.17Q279.92 22.17 278.87 21.61Q277.81 21.05 277.21 20.05Q276.61 19.06 276.61 17.80ZM289.33 17.80L289.33 17.80Q289.33 16.55 289.94 15.55Q290.54 14.56 291.60 14.00Q292.67 13.43 294.00 13.43L294.00 13.43Q295.33 13.43 296.39 14.00Q297.45 14.56 298.06 15.55Q298.67 16.55 298.67 17.80L298.67 17.80Q298.67 19.05 298.06 20.04Q297.45 21.04 296.39 21.60Q295.33 22.17 294.00 22.17L294.00 22.17Q292.67 22.17 291.60 21.60Q290.54 21.04 289.94 20.04Q289.33 19.05 289.33 17.80ZM291.73 17.80L291.73 17.80Q291.73 18.51 292.03 19.05Q292.33 19.60 292.85 19.90Q293.37 20.20 294.00 20.20L294.00 20.20Q294.64 20.20 295.15 19.90Q295.67 19.60 295.97 19.05Q296.27 18.51 296.27 17.80L296.27 17.80Q296.27 17.09 295.97 16.54Q295.67 16 295.15 15.70Q294.64 15.40 294.00 15.40L294.00 15.40Q293.36 15.40 292.85 15.70Q292.33 16 292.03 16.54Q291.73 17.09 291.73 17.80ZM312.27 18.68L310.23 18.68L310.23 16.93L312.27 16.93L312.27 14.95L314.11 14.95L314.11 16.93L316.14 16.93L316.14 18.68L314.11 18.68L314.11 20.66L312.27 20.66L312.27 18.68ZM332.11 22L328.13 22L328.13 13.60L332.11 13.60Q333.49 13.60 334.56 14.12Q335.62 14.63 336.21 15.58Q336.80 16.53 336.80 17.80L336.80 17.80Q336.80 19.07 336.21 20.02Q335.62 20.97 334.56 21.48Q333.49 22 332.11 22L332.11 22ZM330.51 15.50L330.51 20.10L332.01 20.10Q333.09 20.10 333.74 19.49Q334.40 18.88 334.40 17.80L334.40 17.80Q334.40 16.72 333.74 16.11Q333.09 15.50 332.01 15.50L332.01 15.50L330.51 15.50ZM340.45 20.93L340.45 20.93L341.75 19.40Q342.41 20.27 343.19 20.27L343.19 20.27Q343.19 20.27 343.20 20.27L343.20 20.27Q343.71 20.27 343.98 19.96Q344.25 19.65 344.25 19.05L344.25 19.05L344.25 15.44L341.35 15.44L341.35 13.60L346.61 13.60L346.61 18.91Q346.61 20.54 345.79 21.36Q344.96 22.17 343.37 22.17L343.37 22.17Q342.44 22.17 341.69 21.85Q340.93 21.53 340.45 20.93ZM353.11 22L350.69 22L354.40 13.60L356.74 13.60L360.45 22L357.99 22L357.33 20.37L353.78 20.37L353.11 22ZM355.55 15.93L354.47 18.61L356.63 18.61L355.55 15.93ZM366.94 22L364.61 22L364.61 13.60L366.57 13.60L370.28 18.07L370.28 13.60L372.60 13.60L372.60 22L370.65 22L366.94 17.52L366.94 22ZM377.34 17.80L377.34 17.80Q377.34 16.54 377.93 15.54Q378.53 14.55 379.60 13.99Q380.67 13.43 382.01 13.43L382.01 13.43Q383.19 13.43 384.13 13.83Q385.06 14.22 385.69 14.97L385.69 14.97L384.17 16.33Q383.33 15.40 382.15 15.40L382.15 15.40Q382.14 15.40 382.13 15.40L382.13 15.40Q381.06 15.40 380.39 16.06Q379.73 16.71 379.73 17.80L379.73 17.80Q379.73 18.50 380.03 19.04Q380.34 19.59 380.87 19.89Q381.41 20.20 382.11 20.20L382.11 20.20Q382.80 20.20 383.39 19.93L383.39 19.93L383.39 17.62L385.49 17.62L385.49 21.10Q384.77 21.61 383.84 21.89Q382.90 22.17 381.96 22.17L381.96 22.17Q380.65 22.17 379.59 21.61Q378.53 21.05 377.93 20.05Q377.34 19.06 377.34 17.80ZM390.06 17.80L390.06 17.80Q390.06 16.55 390.66 15.55Q391.26 14.56 392.33 14.00Q393.39 13.43 394.72 13.43L394.72 13.43Q396.05 13.43 397.11 14.00Q398.18 14.56 398.78 15.55Q399.39 16.55 399.39 17.80L399.39 17.80Q399.39 19.05 398.78 20.04Q398.18 21.04 397.12 21.60Q396.06 22.17 394.72 22.17L394.72 22.17Q393.39 22.17 392.33 21.60Q391.26 21.04 390.66 20.04Q390.06 19.05 390.06 17.80ZM392.45 17.80L392.45 17.80Q392.45 18.51 392.75 19.05Q393.06 19.60 393.57 19.90Q394.09 20.20 394.72 20.20L394.72 20.20Q395.36 20.20 395.87 19.90Q396.39 19.60 396.69 19.05Q396.99 18.51 396.99 17.80L396.99 17.80Q396.99 17.09 396.69 16.54Q396.39 16 395.87 15.70Q395.36 15.40 394.72 15.40L394.72 15.40Q394.08 15.40 393.57 15.70Q393.06 16 392.75 16.54Q392.45 17.09 392.45 17.80ZM413.47 22L411.09 22L411.09 13.60L414.94 13.60Q416.08 13.60 416.92 13.98Q417.75 14.35 418.21 15.06Q418.67 15.76 418.67 16.71L418.67 16.71Q418.67 17.62 418.24 18.30Q417.81 18.98 417.02 19.36L417.02 19.36L418.83 22L416.29 22L414.77 19.77L413.47 19.77L413.47 22ZM413.47 15.47L413.47 17.93L414.79 17.93Q415.52 17.93 415.89 17.61Q416.27 17.29 416.27 16.71L416.27 16.71Q416.27 16.12 415.89 15.79Q415.52 15.47 414.79 15.47L414.79 15.47L413.47 15.47ZM430.20 22L423.45 22L423.45 13.60L430.05 13.60L430.05 15.44L425.81 15.44L425.81 16.85L429.54 16.85L429.54 18.63L425.81 18.63L425.81 20.17L430.20 20.17L430.20 22ZM434.42 21.24L434.42 21.24L435.20 19.49Q435.76 19.86 436.50 20.09Q437.25 20.32 437.97 20.32L437.97 20.32Q439.33 20.32 439.34 19.64L439.34 19.64Q439.34 19.28 438.95 19.11Q438.56 18.93 437.69 18.74L437.69 18.74Q436.74 18.53 436.11 18.30Q435.47 18.06 435.02 17.55Q434.56 17.03 434.56 16.16L434.56 16.16Q434.56 15.39 434.98 14.77Q435.40 14.15 436.24 13.79Q437.07 13.43 438.28 13.43L438.28 13.43Q439.11 13.43 439.91 13.62Q440.72 13.80 441.33 14.17L441.33 14.17L440.60 15.93Q439.40 15.28 438.27 15.28L438.27 15.28Q437.56 15.28 437.24 15.49Q436.91 15.70 436.91 16.04L436.91 16.04Q436.91 16.37 437.30 16.54Q437.68 16.71 438.53 16.89L438.53 16.89Q439.49 17.10 440.12 17.33Q440.75 17.56 441.21 18.07Q441.68 18.58 441.68 19.46L441.68 19.46Q441.68 20.21 441.26 20.83Q440.84 21.44 440.00 21.80Q439.16 22.17 437.96 22.17L437.96 22.17Q436.94 22.17 435.98 21.92Q435.02 21.67 434.42 21.24ZM448.05 15.48L445.46 15.48L445.46 13.60L452.99 13.60L452.99 15.48L450.42 15.48L450.42 22L448.05 22L448.05 15.48ZM466.71 22L464.33 22L464.33 13.60L470.92 13.60L470.92 15.44L466.71 15.44L466.71 17.28L470.42 17.28L470.42 19.12L466.71 19.12L466.71 22ZM477.89 22L475.52 22L475.52 13.60L479.36 13.60Q480.50 13.60 481.34 13.98Q482.18 14.35 482.63 15.06Q483.09 15.76 483.09 16.71L483.09 16.71Q483.09 17.62 482.66 18.30Q482.24 18.98 481.45 19.36L481.45 19.36L483.26 22L480.71 22L479.19 19.77L477.89 19.77L477.89 22ZM477.89 15.47L477.89 17.93L479.21 17.93Q479.95 17.93 480.32 17.61Q480.69 17.29 480.69 16.71L480.69 16.71Q480.69 16.12 480.32 15.79Q479.95 15.47 479.21 15.47L479.21 15.47L477.89 15.47ZM489.30 22L486.87 22L490.58 13.60L492.92 13.60L496.64 22L494.17 22L493.51 20.37L489.96 20.37L489.30 22ZM491.73 15.93L490.65 18.61L492.81 18.61L491.73 15.93ZM502.99 22L500.79 22L500.79 13.60L502.75 13.60L505.70 18.45L508.59 13.60L510.54 13.60L510.56 22L508.38 22L508.36 17.55L506.20 21.17L505.14 21.17L502.99 17.67L502.99 22ZM522.47 22L515.72 22L515.72 13.60L522.31 13.60L522.31 15.44L518.08 15.44L518.08 16.85L521.81 16.85L521.81 18.63L518.08 18.63L518.08 20.17L522.47 20.17L522.47 22ZM529.35 22L526.63 13.60L529.08 13.60L530.76 18.96L532.54 13.60L534.72 13.60L536.42 19.01L538.18 13.60L540.45 13.60L537.72 22L535.18 22L533.58 16.89L531.89 22L529.35 22ZM544.53 17.80L544.53 17.80Q544.53 16.55 545.14 15.55Q545.74 14.56 546.80 14.00Q547.87 13.43 549.20 13.43L549.20 13.43Q550.53 13.43 551.59 14.00Q552.65 14.56 553.26 15.55Q553.87 16.55 553.87 17.80L553.87 17.80Q553.87 19.05 553.26 20.04Q552.65 21.04 551.59 21.60Q550.53 22.17 549.20 22.17L549.20 22.17Q547.87 22.17 546.80 21.60Q545.74 21.04 545.14 20.04Q544.53 19.05 544.53 17.80ZM546.93 17.80L546.93 17.80Q546.93 18.51 547.23 19.05Q547.53 19.60 548.05 19.90Q548.56 20.20 549.20 20.20L549.20 20.20Q549.84 20.20 550.35 19.90Q550.87 19.60 551.17 19.05Q551.46 18.51 551.46 17.80L551.46 17.80Q551.46 17.09 551.17 16.54Q550.87 16 550.35 15.70Q549.84 15.40 549.20 15.40L549.20 15.40Q548.56 15.40 548.05 15.70Q547.53 16 547.23 16.54Q546.93 17.09 546.93 17.80ZM560.97 22L558.60 22L558.60 13.60L562.44 13.60Q563.58 13.60 564.42 13.98Q565.26 14.35 565.71 15.06Q566.17 15.76 566.17 16.71L566.17 16.71Q566.17 17.62 565.74 18.30Q565.32 18.98 564.53 19.36L564.53 19.36L566.34 22L563.79 22L562.27 19.77L560.97 19.77L560.97 22ZM560.97 15.47L560.97 17.93L562.29 17.93Q563.03 17.93 563.40 17.61Q563.77 17.29 563.77 16.71L563.77 16.71Q563.77 16.12 563.40 15.79Q563.03 15.47 562.29 15.47L562.29 15.47L560.97 15.47ZM573.31 22L570.96 22L570.96 13.60L573.31 13.60L573.31 17.09L576.57 13.60L579.18 13.60L575.75 17.32L579.36 22L576.60 22L574.20 18.95L573.31 19.90L573.31 22Z" fill="#FFFFFF" x="126.31"/></svg>